<mxfile host="app.diagrams.net" modified="2022-07-28T03:06:01.723Z" agent="5.0 (Windows NT 6.1; Win64; x64) AppleWebKit/537.36 (KHTML, like Gecko) Chrome/102.0.0.0 Safari/537.36" etag="H3u-G4R-lax7J1FllA5K" version="20.2.2" type="github">
  <diagram id="wAoIgG7vKwJQs3ceLdWb" name="第 1 页">
    <mxGraphModel dx="1191" dy="599" grid="1" gridSize="10" guides="1" tooltips="1" connect="1" arrows="1" fold="1" page="1" pageScale="1" pageWidth="827" pageHeight="1169" math="0" shadow="0">
      <root>
        <mxCell id="0" />
        <mxCell id="1" parent="0" />
        <mxCell id="1InXFJTsQWki-XIseqBD-3" value="" style="edgeStyle=orthogonalEdgeStyle;rounded=0;orthogonalLoop=1;jettySize=auto;html=1;fontSize=24;" edge="1" parent="1" source="1InXFJTsQWki-XIseqBD-1" target="1InXFJTsQWki-XIseqBD-2">
          <mxGeometry relative="1" as="geometry" />
        </mxCell>
        <mxCell id="1InXFJTsQWki-XIseqBD-5" value="" style="edgeStyle=orthogonalEdgeStyle;rounded=0;orthogonalLoop=1;jettySize=auto;html=1;fontSize=14;" edge="1" parent="1" source="1InXFJTsQWki-XIseqBD-1" target="1InXFJTsQWki-XIseqBD-4">
          <mxGeometry relative="1" as="geometry" />
        </mxCell>
        <mxCell id="1InXFJTsQWki-XIseqBD-6" value="" style="edgeStyle=orthogonalEdgeStyle;rounded=0;orthogonalLoop=1;jettySize=auto;html=1;fontSize=14;" edge="1" parent="1" source="1InXFJTsQWki-XIseqBD-1" target="1InXFJTsQWki-XIseqBD-4">
          <mxGeometry relative="1" as="geometry" />
        </mxCell>
        <mxCell id="1InXFJTsQWki-XIseqBD-8" style="edgeStyle=orthogonalEdgeStyle;rounded=0;orthogonalLoop=1;jettySize=auto;html=1;fontSize=14;" edge="1" parent="1" source="1InXFJTsQWki-XIseqBD-1">
          <mxGeometry relative="1" as="geometry">
            <mxPoint x="730" y="210" as="targetPoint" />
          </mxGeometry>
        </mxCell>
        <mxCell id="1InXFJTsQWki-XIseqBD-1" value="&lt;font style=&quot;font-size: 24px;&quot;&gt;&lt;b&gt;CDS 项目详情页&lt;/b&gt;&lt;/font&gt;" style="rounded=0;whiteSpace=wrap;html=1;fillColor=#d5e8d4;strokeColor=#82b366;sketch=1;glass=0;shadow=0;" vertex="1" parent="1">
          <mxGeometry x="20" y="60" width="800" height="60" as="geometry" />
        </mxCell>
        <mxCell id="1InXFJTsQWki-XIseqBD-2" value="&lt;font style=&quot;font-size: 14px;&quot;&gt;项目详细信息概览&lt;/font&gt;" style="whiteSpace=wrap;html=1;fillColor=#d5e8d4;strokeColor=#82b366;rounded=0;sketch=1;glass=0;shadow=0;" vertex="1" parent="1">
          <mxGeometry x="20" y="210" width="230" height="60" as="geometry" />
        </mxCell>
        <mxCell id="1InXFJTsQWki-XIseqBD-14" value="" style="edgeStyle=orthogonalEdgeStyle;rounded=0;orthogonalLoop=1;jettySize=auto;html=1;fontSize=14;" edge="1" parent="1" source="1InXFJTsQWki-XIseqBD-4" target="1InXFJTsQWki-XIseqBD-13">
          <mxGeometry relative="1" as="geometry">
            <Array as="points">
              <mxPoint x="420" y="310" />
              <mxPoint x="320" y="310" />
            </Array>
          </mxGeometry>
        </mxCell>
        <mxCell id="1InXFJTsQWki-XIseqBD-16" value="" style="edgeStyle=orthogonalEdgeStyle;rounded=0;orthogonalLoop=1;jettySize=auto;html=1;fontSize=14;" edge="1" parent="1" source="1InXFJTsQWki-XIseqBD-4" target="1InXFJTsQWki-XIseqBD-15">
          <mxGeometry relative="1" as="geometry">
            <Array as="points">
              <mxPoint x="420" y="310" />
              <mxPoint x="460" y="310" />
            </Array>
          </mxGeometry>
        </mxCell>
        <mxCell id="1InXFJTsQWki-XIseqBD-18" value="" style="edgeStyle=orthogonalEdgeStyle;rounded=0;orthogonalLoop=1;jettySize=auto;html=1;fontSize=14;" edge="1" parent="1" source="1InXFJTsQWki-XIseqBD-4" target="1InXFJTsQWki-XIseqBD-17">
          <mxGeometry relative="1" as="geometry">
            <Array as="points">
              <mxPoint x="420" y="310" />
              <mxPoint x="595" y="310" />
            </Array>
          </mxGeometry>
        </mxCell>
        <mxCell id="1InXFJTsQWki-XIseqBD-19" style="edgeStyle=orthogonalEdgeStyle;rounded=0;orthogonalLoop=1;jettySize=auto;html=1;fontSize=14;" edge="1" parent="1" source="1InXFJTsQWki-XIseqBD-4" target="1InXFJTsQWki-XIseqBD-11">
          <mxGeometry relative="1" as="geometry">
            <Array as="points">
              <mxPoint x="420" y="310" />
              <mxPoint x="180" y="310" />
            </Array>
          </mxGeometry>
        </mxCell>
        <mxCell id="1InXFJTsQWki-XIseqBD-4" value="&lt;font style=&quot;font-size: 14px;&quot;&gt;项目模块信息展示&lt;/font&gt;" style="whiteSpace=wrap;html=1;fillColor=#d5e8d4;strokeColor=#82b366;rounded=0;sketch=1;glass=0;shadow=0;" vertex="1" parent="1">
          <mxGeometry x="305" y="210" width="230" height="60" as="geometry" />
        </mxCell>
        <mxCell id="1InXFJTsQWki-XIseqBD-7" value="&lt;font style=&quot;font-size: 14px;&quot;&gt;项目流程生命周期&lt;/font&gt;" style="whiteSpace=wrap;html=1;fillColor=#d5e8d4;strokeColor=#82b366;rounded=0;sketch=1;glass=0;shadow=0;" vertex="1" parent="1">
          <mxGeometry x="610" y="210" width="230" height="60" as="geometry" />
        </mxCell>
        <mxCell id="1InXFJTsQWki-XIseqBD-11" value="交付信息" style="ellipse;whiteSpace=wrap;html=1;fillColor=#f8cecc;strokeColor=#b85450;rounded=0;sketch=1;glass=0;shadow=0;" vertex="1" parent="1">
          <mxGeometry x="120" y="360" width="120" height="60" as="geometry" />
        </mxCell>
        <mxCell id="1InXFJTsQWki-XIseqBD-13" value="流程日志" style="ellipse;whiteSpace=wrap;html=1;fillColor=#f8cecc;strokeColor=#b85450;rounded=0;sketch=1;glass=0;shadow=0;" vertex="1" parent="1">
          <mxGeometry x="260" y="360" width="120" height="60" as="geometry" />
        </mxCell>
        <mxCell id="1InXFJTsQWki-XIseqBD-15" value="相关附件" style="ellipse;whiteSpace=wrap;html=1;fillColor=#f8cecc;strokeColor=#b85450;rounded=0;sketch=1;glass=0;shadow=0;" vertex="1" parent="1">
          <mxGeometry x="400" y="360" width="120" height="60" as="geometry" />
        </mxCell>
        <mxCell id="1InXFJTsQWki-XIseqBD-17" value="历史邮件" style="ellipse;whiteSpace=wrap;html=1;fillColor=#f8cecc;strokeColor=#b85450;rounded=0;sketch=1;glass=0;shadow=0;" vertex="1" parent="1">
          <mxGeometry x="535" y="360" width="120" height="60" as="geometry" />
        </mxCell>
      </root>
    </mxGraphModel>
  </diagram>
</mxfile>
